<?xml version="1.0" standalone="no"?>
<!DOCTYPE svg PUBLIC "-//W3C//DTD SVG 20010904//EN"
 "http://www.w3.org/TR/2001/REC-SVG-20010904/DTD/svg10.dtd">
<svg version="1.0" xmlns="http://www.w3.org/2000/svg"
 width="512.000000pt" height="512.000000pt" viewBox="0 0 512.000000 512.000000"
 preserveAspectRatio="xMidYMid meet">

<g transform="translate(0.000000,512.000000) scale(0.100000,-0.100000)"
fill="#000000" stroke="none">
<path d="M1455 4473 c-82 -10 -187 -38 -244 -65 -74 -35 -153 -109 -170 -159
-7 -21 -27 -45 -52 -62 -29 -20 -48 -44 -65 -85 -53 -122 -56 -126 -98 -133
-42 -7 -76 -38 -76 -69 0 -9 9 -29 21 -44 16 -21 29 -26 64 -26 90 0 150 47
191 150 15 39 30 70 33 70 3 0 12 -9 19 -20 6 -11 31 -29 54 -41 34 -18 54
-21 107 -16 37 2 75 8 85 13 16 6 18 4 12 -12 -4 -10 -10 -42 -13 -70 l-5 -51
-77 -11 c-88 -14 -195 -63 -224 -103 -24 -34 -13 -77 26 -99 25 -14 31 -12 94
19 180 88 328 47 518 -144 55 -55 108 -115 118 -133 l18 -32 -103 0 -104 0
-22 45 c-67 139 -217 217 -327 171 -52 -22 -80 -58 -143 -181 -46 -92 -69
-123 -136 -191 -91 -91 -158 -129 -255 -145 -100 -16 -171 22 -171 91 0 53 29
65 159 65 133 0 157 9 215 76 36 43 106 205 106 247 0 47 -62 77 -109 52 -10
-5 -33 -49 -51 -97 -19 -50 -46 -100 -61 -116 -28 -28 -30 -28 -111 -21 -128
10 -204 -19 -258 -99 -14 -21 -41 -46 -60 -55 -21 -10 -47 -38 -69 -74 -29
-47 -41 -57 -64 -58 -64 -1 -89 -76 -39 -122 60 -58 131 -41 184 46 l32 52 50
-52 c63 -65 135 -90 230 -80 231 24 419 175 547 440 46 95 65 109 117 82 28
-15 92 -82 92 -98 0 -3 -17 -12 -37 -19 -116 -37 -221 -121 -265 -211 -31 -62
-53 -168 -63 -292 -9 -113 -30 -194 -57 -223 -26 -28 -60 -29 -154 -7 -87 20
-174 20 -212 0 -17 -9 -48 -36 -69 -61 -25 -31 -45 -45 -62 -45 -13 0 -52 -15
-86 -34 -42 -24 -65 -32 -75 -26 -26 17 -60 11 -85 -15 -34 -33 -31 -61 9
-101 29 -29 41 -34 83 -34 38 0 62 8 107 35 64 38 76 42 76 22 0 -8 13 -32 28
-53 105 -144 428 -207 605 -118 27 13 51 24 53 24 14 0 -50 -264 -83 -350 -34
-86 -87 -165 -126 -188 -19 -12 -61 -22 -104 -26 -122 -10 -208 -53 -257 -128
-11 -17 -29 -28 -54 -32 -34 -6 -59 -22 -157 -100 -36 -29 -37 -29 -65 -13
-15 9 -40 17 -54 17 -30 0 -66 -35 -66 -66 0 -30 37 -74 76 -90 72 -30 140
-11 229 66 25 22 50 40 54 40 5 0 15 -15 22 -32 51 -125 213 -188 365 -143
162 48 371 271 498 529 l39 79 21 -59 c12 -33 36 -86 54 -118 l32 -59 -19 -41
c-33 -74 -77 -122 -164 -179 -88 -58 -127 -105 -143 -172 -4 -16 -13 -37 -20
-45 -7 -8 -34 -53 -59 -100 -57 -103 -71 -120 -101 -120 -26 0 -64 -43 -64
-72 0 -29 45 -68 77 -68 74 1 140 58 205 179 l27 50 33 -17 c48 -25 150 -21
212 7 81 36 179 106 255 183 l71 72 78 -41 c138 -74 251 -108 407 -123 220
-22 438 30 651 156 l31 18 58 -62 c162 -175 362 -265 477 -214 l45 19 33 -60
c79 -143 175 -201 244 -146 46 36 23 119 -33 119 -25 0 -64 47 -101 120 -16
31 -40 71 -54 87 -14 17 -26 41 -26 52 0 56 -54 123 -150 183 -70 44 -119 99
-155 171 l-28 57 39 85 c22 47 42 85 45 85 3 0 14 -19 25 -42 65 -146 266
-376 394 -451 147 -85 294 -100 401 -40 49 27 79 60 125 139 10 16 15 14 70
-30 69 -57 109 -76 161 -76 38 0 98 28 121 58 18 24 15 76 -6 95 -23 21 -70
21 -96 2 -11 -8 -23 -15 -27 -15 -3 0 -35 23 -70 51 -72 58 -109 79 -137 79
-11 0 -36 20 -57 45 -48 59 -115 93 -212 106 -43 6 -88 13 -100 15 -44 8 -93
65 -139 160 -25 51 -52 95 -60 98 -54 21 -104 -8 -104 -59 0 -41 71 -182 120
-238 62 -71 115 -98 213 -108 105 -12 142 -24 167 -56 42 -54 17 -121 -56
-149 -101 -39 -234 16 -375 156 -132 131 -221 275 -273 438 l-26 83 0 480 c0
508 0 505 44 445 17 -22 23 -53 32 -164 25 -300 82 -681 106 -709 33 -40 98
-31 117 15 9 21 8 43 -2 95 -8 37 -13 67 -10 67 2 0 22 -9 45 -21 172 -88 477
-39 597 97 22 26 41 53 41 60 0 27 22 25 73 -7 67 -42 137 -49 184 -20 81 51
38 166 -49 133 -28 -10 -36 -8 -87 23 -32 20 -70 35 -87 35 -24 0 -36 8 -61
43 -54 77 -140 96 -283 63 -102 -24 -135 -21 -160 14 -24 34 -43 126 -59 281
-19 193 -70 296 -187 374 -33 23 -85 49 -117 59 -65 20 -65 27 -1 91 38 38 79
53 103 38 9 -5 39 -55 66 -110 58 -115 104 -181 173 -245 180 -169 427 -225
562 -127 22 16 49 43 59 59 l17 29 35 -52 c44 -67 94 -94 144 -77 38 12 75 52
75 80 0 31 -39 70 -70 70 -24 0 -34 8 -55 45 -29 48 -78 95 -100 95 -8 0 -24
18 -36 40 -46 82 -133 116 -266 105 -78 -6 -83 -5 -106 17 -13 13 -39 62 -57
108 -48 125 -76 177 -128 233 -78 83 -170 128 -289 142 l-63 7 0 46 c0 26 -3
58 -7 71 -5 21 -4 23 13 16 30 -12 110 -18 149 -11 20 4 53 23 75 43 l40 35
11 -29 c60 -145 98 -183 193 -191 45 -4 57 -1 75 17 43 43 9 121 -53 121 -34
0 -44 12 -76 90 -30 74 -77 135 -111 145 -10 3 -21 19 -24 35 -10 45 -90 127
-158 161 -114 58 -191 72 -397 73 -174 0 -190 -2 -275 -28 -161 -49 -301 -146
-395 -274 l-44 -62 -21 93 c-35 153 -75 220 -149 256 -141 69 -265 -37 -307
-260 -6 -35 -13 -70 -15 -78 -3 -7 -23 12 -47 45 -154 210 -381 316 -667 312
-63 0 -128 -3 -145 -5z m359 -157 c202 -56 367 -215 444 -428 50 -141 50 -251
-1 -361 l-24 -52 -7 40 c-33 193 -130 388 -254 512 -141 141 -400 180 -669
102 -85 -25 -120 -20 -129 18 -21 81 87 154 271 182 86 14 299 6 369 -13z
m765 14 c54 -28 88 -206 97 -500 3 -107 10 -220 16 -250 24 -124 95 -236 190
-300 100 -67 137 -73 428 -75 206 -1 266 -5 315 -19 138 -39 208 -93 240 -185
9 -25 22 -108 31 -184 17 -168 27 -215 58 -275 57 -112 154 -145 311 -107 33
8 79 14 102 15 37 0 44 -4 58 -30 20 -39 20 -44 -16 -84 -44 -50 -122 -77
-241 -84 -118 -6 -172 7 -227 55 -44 37 -91 125 -110 207 -7 26 -16 109 -22
184 -11 163 -20 198 -62 254 -73 98 -232 139 -457 119 -320 -29 -458 -4 -573
107 -53 52 -87 127 -87 193 0 29 -7 47 -25 64 -27 28 -42 30 -80 13 -27 -12
-28 -16 -45 -112 -18 -105 -78 -180 -185 -230 -89 -42 -152 -50 -345 -40 -352
18 -459 2 -547 -79 -68 -62 -85 -108 -94 -264 -13 -212 -44 -316 -119 -397
-61 -66 -105 -80 -237 -74 -91 4 -118 9 -171 33 -94 42 -128 100 -85 147 20
22 60 23 150 2 94 -22 190 -16 235 15 79 55 114 142 134 340 21 203 34 244 97
306 92 89 246 122 527 112 181 -7 264 4 349 45 60 28 152 121 184 184 51 100
58 145 67 399 11 297 34 429 87 487 18 21 27 22 52 8z m1076 -1 c114 -16 195
-44 242 -84 49 -41 61 -77 38 -112 -20 -29 -35 -29 -165 8 -70 19 -109 23
-220 24 -145 0 -207 -13 -303 -62 -158 -80 -327 -354 -356 -578 l-7 -50 -21
40 c-76 148 -48 347 77 538 148 224 397 321 715 276z m-1921 -323 c78 -24 131
-62 185 -133 104 -139 161 -278 161 -393 0 -96 -16 -125 -72 -133 -23 -3 -43
-5 -43 -4 -1 1 -28 43 -60 92 -102 155 -247 291 -381 358 -45 23 -52 30 -57
64 -8 50 7 104 40 144 l27 32 77 -7 c42 -3 97 -13 123 -20z m1880 -15 c50 -72
48 -171 -4 -189 -42 -15 -137 -78 -202 -134 -66 -57 -161 -171 -220 -265 l-40
-63 -41 7 c-47 7 -53 12 -68 68 -42 150 125 492 275 565 54 26 154 48 222 49
49 1 53 -1 78 -38z m310 -308 c96 -31 150 -101 226 -291 60 -151 136 -202 283
-188 44 4 85 2 103 -4 35 -12 58 -52 48 -84 -18 -60 -80 -83 -176 -66 -158 29
-283 138 -388 339 -84 160 -113 186 -208 186 -46 0 -79 -6 -106 -19 -52 -26
-126 -102 -154 -159 l-23 -47 -100 0 c-54 0 -99 3 -99 6 0 27 139 184 213 240
140 106 245 130 381 87z m-1182 -698 c132 -66 248 -78 556 -61 l153 9 -3 -519
-4 -519 -27 -89 c-66 -212 -185 -380 -349 -493 -93 -64 -152 -94 -258 -129
-80 -26 -96 -28 -255 -29 -148 0 -180 3 -248 23 -255 74 -464 252 -576 494
-77 163 -74 142 -78 732 l-4 529 163 -9 c319 -17 412 -7 556 61 50 24 91 53
130 93 l57 58 60 -58 c34 -34 89 -73 127 -93z m-1267 -1047 c-96 -336 -381
-688 -557 -688 -139 0 -199 135 -84 189 22 11 77 24 122 29 99 12 146 33 205
93 87 89 157 260 203 496 31 163 76 504 85 654 5 91 11 123 26 145 l20 29 3
-430 2 -430 -25 -87z m1962 -678 c26 -29 78 -73 116 -97 67 -43 95 -78 84
-107 -23 -59 -177 8 -309 134 l-83 79 55 56 54 55 18 -33 c9 -18 38 -57 65
-87z m-1625 51 l47 -48 -63 -63 c-136 -135 -296 -207 -320 -144 -11 28 18 62
99 116 57 38 94 72 130 121 28 37 52 67 55 67 3 0 26 -22 52 -49z"/>
<path d="M1976 2814 c-95 -17 -127 -31 -142 -63 -16 -31 -1 -75 32 -89 19 -9
40 -8 92 4 90 21 233 21 321 -1 66 -16 73 -16 96 -1 58 38 42 106 -32 130
-110 36 -239 43 -367 20z"/>
<path d="M2895 2823 c-82 -10 -174 -36 -190 -52 -24 -28 -16 -79 16 -104 26
-19 29 -19 95 -2 90 22 232 22 324 0 70 -17 72 -17 98 2 35 26 41 74 13 102
-41 41 -230 70 -356 54z"/>
<path d="M1920 2520 c-37 -37 -27 -79 35 -140 30 -30 55 -59 55 -65 0 -6 -25
-35 -55 -65 -60 -59 -72 -102 -37 -133 39 -35 74 -26 143 40 l60 57 59 -59
c67 -67 108 -77 142 -36 31 40 23 68 -41 134 l-59 62 59 63 c66 70 73 98 34
137 -37 38 -60 31 -131 -37 l-64 -61 -64 61 c-70 68 -101 77 -136 42z"/>
<path d="M2780 2520 c-37 -37 -26 -75 40 -144 l59 -62 -59 -59 c-65 -64 -78
-106 -42 -138 39 -35 74 -26 143 40 l60 57 59 -59 c67 -67 108 -77 142 -36 32
40 23 68 -41 134 l-60 62 60 61 c45 48 59 69 59 92 0 34 -39 72 -72 72 -11 0
-49 -28 -84 -62 l-64 -61 -64 61 c-70 68 -101 77 -136 42z"/>
<path d="M2420 1888 c-85 -30 -133 -68 -165 -131 -28 -57 -31 -93 -11 -140 36
-86 115 -111 335 -105 122 3 154 7 193 25 60 27 88 71 88 136 0 63 -22 108
-77 157 -56 49 -117 70 -218 76 -66 4 -92 1 -145 -18z m205 -132 c53 -16 95
-50 95 -77 0 -23 -73 -33 -217 -27 -129 4 -139 8 -118 48 13 26 35 38 115 64
29 9 77 6 125 -8z"/>
</g>
</svg>
